<svg width="42" height="41" viewBox="0 0 42 41" fill="none" xmlns="http://www.w3.org/2000/svg">
<path fill-rule="evenodd" clip-rule="evenodd" d="M33.5358 9C33.7915 9 34.0368 9.10096 34.2176 9.28067C34.3984 9.46039 34.5 9.70413 34.5 9.95828V19.1578C34.5 19.787 34.3753 20.4101 34.133 20.9914C33.8907 21.5727 33.5356 22.1009 33.0879 22.5458C32.6402 22.9908 32.1088 23.3437 31.5238 23.5845C30.9389 23.8253 30.312 23.9492 29.6789 23.9492H10.7936L17.2481 30.362C17.4292 30.542 17.5309 30.786 17.5309 31.0405C17.5309 31.295 17.4292 31.539 17.2481 31.719C17.067 31.8989 16.8215 32 16.5654 32C16.3094 32 16.0638 31.8989 15.8828 31.719L7.78328 23.6694C7.69348 23.5804 7.62224 23.4746 7.57363 23.3582C7.52502 23.2418 7.5 23.117 7.5 22.9909C7.5 22.8649 7.52502 22.7401 7.57363 22.6237C7.62224 22.5072 7.69348 22.4015 7.78328 22.3125L15.4971 14.6462C15.6781 14.4663 15.9237 14.3652 16.1797 14.3652C16.4358 14.3652 16.6814 14.4663 16.8624 14.6462C17.0435 14.8261 17.1452 15.0702 17.1452 15.3247C17.1452 15.5791 17.0435 15.8232 16.8624 16.0031L10.7936 22.0326H29.6789C30.4461 22.0326 31.1818 21.7298 31.7243 21.1906C32.2668 20.6515 32.5716 19.9203 32.5716 19.1578V9.95828C32.5716 9.70413 32.6731 9.46039 32.854 9.28067C33.0348 9.10096 33.28 9 33.5358 9Z" fill="white"/>
<rect x="1" y="1" width="40" height="39" rx="5" stroke="white" stroke-width="2"/>
</svg>
