<svg width="112" height="112" viewBox="0 0 112 112" fill="none" xmlns="http://www.w3.org/2000/svg">
<path d="M56 112C25.1088 112 0 86.8912 0 56C0 25.1088 25.1088 0 56 0C86.8912 0 112 25.1088 112 56C112 86.8912 86.8912 112 56 112ZM56 7.81395C29.4326 7.81395 7.81395 29.4326 7.81395 56C7.81395 82.5674 29.4326 104.186 56 104.186C82.5674 104.186 104.186 82.5674 104.186 56C104.186 29.4326 82.5674 7.81395 56 7.81395Z" fill="white"/>
<path d="M48.6004 74.6497C47.5585 74.6497 46.5688 74.2329 45.8395 73.5036L31.0969 58.7613C29.5862 57.2506 29.5862 54.7502 31.0969 53.2395C32.6076 51.7288 35.1081 51.7288 36.6188 53.2395L48.6004 65.2208L75.3762 38.445C76.8869 36.9343 79.3874 36.9343 80.8981 38.445C82.4088 39.9557 82.4088 42.4562 80.8981 43.9669L51.3613 73.5036C50.632 74.2329 49.6423 74.6497 48.6004 74.6497Z" fill="white"/>
</svg>
