<svg width="21" height="22" viewBox="0 0 21 22" fill="none" xmlns="http://www.w3.org/2000/svg">
<path d="M9.87927 20.4122C4.43362 20.4122 0 15.9785 0 10.5328C0 5.08703 4.43362 0.65332 9.87927 0.65332C15.3249 0.65332 19.7585 5.08703 19.7585 10.5328C19.7585 15.9785 15.3249 20.4122 9.87927 20.4122ZM9.87927 2.09909C5.22396 2.09909 1.44575 5.88702 1.44575 10.5328C1.44575 15.1785 5.22396 18.9665 9.87927 18.9665C14.5346 18.9665 18.3128 15.1785 18.3128 10.5328C18.3128 5.88702 14.5346 2.09909 9.87927 2.09909Z" fill="#292D32"/>
<path d="M19.9997 21.3759C19.8166 21.3759 19.6334 21.3085 19.4889 21.1639L17.5612 19.2362C17.2817 18.9567 17.2817 18.494 17.5612 18.2145C17.8407 17.935 18.3033 17.935 18.5829 18.2145L20.5105 20.1422C20.79 20.4217 20.79 20.8844 20.5105 21.1639C20.3659 21.3085 20.1828 21.3759 19.9997 21.3759Z" fill="#292D32"/>
</svg>
