<svg id="visual" viewBox="0 0 960 540" width="960" height="540" xmlns="http://www.w3.org/2000/svg" xmlns:xlink="http://www.w3.org/1999/xlink" version="1.1"><path d="M0 154L32 153.3C64 152.7 128 151.3 192 159C256 166.7 320 183.3 384 196.2C448 209 512 218 576 221.3C640 224.7 704 222.3 768 219.5C832 216.7 896 213.3 928 211.7L960 210L960 0L928 0C896 0 832 0 768 0C704 0 640 0 576 0C512 0 448 0 384 0C320 0 256 0 192 0C128 0 64 0 32 0L0 0Z" fill="#269dd3"></path><path d="M0 82L32 81.7C64 81.3 128 80.7 192 90C256 99.3 320 118.7 384 127.8C448 137 512 136 576 126.5C640 117 704 99 768 93.2C832 87.3 896 93.7 928 96.8L960 100L960 0L928 0C896 0 832 0 768 0C704 0 640 0 576 0C512 0 448 0 384 0C320 0 256 0 192 0C128 0 64 0 32 0L0 0Z" fill="#0c0c0c"></path></svg>