<svg id="visual" viewBox="0 0 960 540" width="960" height="540" xmlns="http://www.w3.org/2000/svg" xmlns:xlink="http://www.w3.org/1999/xlink" version="1.1"><g stroke-width="1" stroke-linejoin="bevel"><path d="M507 273L512 326L558 284Z" fill="#19374a" stroke="#19374a"></path><path d="M512 326L565 350L558 284Z" fill="#0f1d29" stroke="#0f1d29"></path><path d="M565 350L646 298L558 284Z" fill="#278dbe" stroke="#278dbe"></path><path d="M558 284L596 197L507 273Z" fill="#267eaa" stroke="#267eaa"></path><path d="M646 298L596 197L558 284Z" fill="#278dbe" stroke="#278dbe"></path><path d="M503 169L412 255L507 273Z" fill="#142a39" stroke="#142a39"></path><path d="M507 273L412 255L512 326Z" fill="#236082" stroke="#236082"></path><path d="M379 334L482 418L512 326Z" fill="#0f1d29" stroke="#0f1d29"></path><path d="M512 326L482 418L565 350Z" fill="#269dd3" stroke="#269dd3"></path><path d="M565 350L658 389L646 298Z" fill="#061119" stroke="#061119"></path><path d="M596 197L503 169L507 273Z" fill="#269dd3" stroke="#269dd3"></path><path d="M412 255L379 334L512 326Z" fill="#1d445c" stroke="#1d445c"></path><path d="M482 418L548 454L565 350Z" fill="#278dbe" stroke="#278dbe"></path><path d="M639 421L658 389L565 350Z" fill="#269dd3" stroke="#269dd3"></path><path d="M548 454L639 421L565 350Z" fill="#0f1d29" stroke="#0f1d29"></path><path d="M590 70L463 123L503 169Z" fill="#142a39" stroke="#142a39"></path><path d="M503 169L417 120L412 255Z" fill="#256f96" stroke="#256f96"></path><path d="M301 285L319 345L379 334Z" fill="#0f1d29" stroke="#0f1d29"></path><path d="M379 334L412 453L482 418Z" fill="#269dd3" stroke="#269dd3"></path><path d="M482 418L482 540L548 454Z" fill="#256f96" stroke="#256f96"></path><path d="M646 298L683 168L596 197Z" fill="#20526f" stroke="#20526f"></path><path d="M596 197L590 70L503 169Z" fill="#20526f" stroke="#20526f"></path><path d="M770 281L683 168L646 298Z" fill="#256f96" stroke="#256f96"></path><path d="M417 120L355 186L412 255Z" fill="#267eaa" stroke="#267eaa"></path><path d="M463 123L417 120L503 169Z" fill="#1d445c" stroke="#1d445c"></path><path d="M301 285L379 334L412 255Z" fill="#142a39" stroke="#142a39"></path><path d="M379 334L319 345L412 453Z" fill="#236082" stroke="#236082"></path><path d="M355 186L301 285L412 255Z" fill="#19374a" stroke="#19374a"></path><path d="M677 90L590 70L596 197Z" fill="#269dd3" stroke="#269dd3"></path><path d="M463 123L460 0L417 120Z" fill="#1d445c" stroke="#1d445c"></path><path d="M774 364L646 298L658 389Z" fill="#19374a" stroke="#19374a"></path><path d="M774 364L770 281L646 298Z" fill="#256f96" stroke="#256f96"></path><path d="M390 540L482 540L412 453Z" fill="#236082" stroke="#236082"></path><path d="M412 453L482 540L482 418Z" fill="#1d445c" stroke="#1d445c"></path><path d="M548 454L579 540L639 421Z" fill="#0f1d29" stroke="#0f1d29"></path><path d="M482 540L579 540L548 454Z" fill="#1d445c" stroke="#1d445c"></path><path d="M639 421L742 425L658 389Z" fill="#269dd3" stroke="#269dd3"></path><path d="M698 540L742 425L639 421Z" fill="#19374a" stroke="#19374a"></path><path d="M742 425L774 364L658 389Z" fill="#267eaa" stroke="#267eaa"></path><path d="M780 168L677 90L683 168Z" fill="#061119" stroke="#061119"></path><path d="M683 168L677 90L596 197Z" fill="#256f96" stroke="#256f96"></path><path d="M270 95L289 184L355 186Z" fill="#061119" stroke="#061119"></path><path d="M355 186L289 184L301 285Z" fill="#256f96" stroke="#256f96"></path><path d="M278 455L390 540L412 453Z" fill="#142a39" stroke="#142a39"></path><path d="M770 281L780 168L683 168Z" fill="#269dd3" stroke="#269dd3"></path><path d="M861 263L780 168L770 281Z" fill="#20526f" stroke="#20526f"></path><path d="M194 330L278 455L319 345Z" fill="#256f96" stroke="#256f96"></path><path d="M319 345L278 455L412 453Z" fill="#142a39" stroke="#142a39"></path><path d="M194 330L319 345L301 285Z" fill="#269dd3" stroke="#269dd3"></path><path d="M579 540L698 540L639 421Z" fill="#061119" stroke="#061119"></path><path d="M881 369L861 263L774 364Z" fill="#19374a" stroke="#19374a"></path><path d="M662 0L589 0L590 70Z" fill="#278dbe" stroke="#278dbe"></path><path d="M590 70L460 0L463 123Z" fill="#142a39" stroke="#142a39"></path><path d="M417 120L270 95L355 186Z" fill="#267eaa" stroke="#267eaa"></path><path d="M662 0L590 70L677 90Z" fill="#269dd3" stroke="#269dd3"></path><path d="M589 0L460 0L590 70Z" fill="#20526f" stroke="#20526f"></path><path d="M736 0L662 0L677 90Z" fill="#1d445c" stroke="#1d445c"></path><path d="M381 0L270 95L417 120Z" fill="#1d445c" stroke="#1d445c"></path><path d="M289 184L211 190L301 285Z" fill="#061119" stroke="#061119"></path><path d="M780 168L773 74L677 90Z" fill="#20526f" stroke="#20526f"></path><path d="M460 0L381 0L417 120Z" fill="#061119" stroke="#061119"></path><path d="M881 369L774 364L862 447Z" fill="#256f96" stroke="#256f96"></path><path d="M774 364L861 263L770 281Z" fill="#1d445c" stroke="#1d445c"></path><path d="M780 168L895 102L773 74Z" fill="#236082" stroke="#236082"></path><path d="M278 455L297 540L390 540Z" fill="#19374a" stroke="#19374a"></path><path d="M270 95L211 190L289 184Z" fill="#19374a" stroke="#19374a"></path><path d="M278 455L222 540L297 540Z" fill="#0f1d29" stroke="#0f1d29"></path><path d="M182 260L194 330L301 285Z" fill="#236082" stroke="#236082"></path><path d="M211 190L182 260L301 285Z" fill="#0f1d29" stroke="#0f1d29"></path><path d="M698 540L786 540L742 425Z" fill="#278dbe" stroke="#278dbe"></path><path d="M861 263L870 189L780 168Z" fill="#1d445c" stroke="#1d445c"></path><path d="M862 447L774 364L742 425Z" fill="#19374a" stroke="#19374a"></path><path d="M861 263L960 207L870 189Z" fill="#1d445c" stroke="#1d445c"></path><path d="M840 0L736 0L773 74Z" fill="#0f1d29" stroke="#0f1d29"></path><path d="M773 74L736 0L677 90Z" fill="#142a39" stroke="#142a39"></path><path d="M786 540L862 447L742 425Z" fill="#1d445c" stroke="#1d445c"></path><path d="M381 0L307 0L270 95Z" fill="#0f1d29" stroke="#0f1d29"></path><path d="M270 95L217 68L211 190Z" fill="#267eaa" stroke="#267eaa"></path><path d="M110 351L179 457L194 330Z" fill="#19374a" stroke="#19374a"></path><path d="M194 330L179 457L278 455Z" fill="#267eaa" stroke="#267eaa"></path><path d="M211 190L116 171L182 260Z" fill="#142a39" stroke="#142a39"></path><path d="M307 0L217 68L270 95Z" fill="#142a39" stroke="#142a39"></path><path d="M179 457L222 540L278 455Z" fill="#269dd3" stroke="#269dd3"></path><path d="M786 540L848 540L862 447Z" fill="#269dd3" stroke="#269dd3"></path><path d="M960 355L861 263L881 369Z" fill="#1d445c" stroke="#1d445c"></path><path d="M960 207L895 102L870 189Z" fill="#20526f" stroke="#20526f"></path><path d="M870 189L895 102L780 168Z" fill="#269dd3" stroke="#269dd3"></path><path d="M182 260L110 351L194 330Z" fill="#142a39" stroke="#142a39"></path><path d="M179 457L123 540L222 540Z" fill="#256f96" stroke="#256f96"></path><path d="M64 253L110 351L182 260Z" fill="#269dd3" stroke="#269dd3"></path><path d="M895 102L840 0L773 74Z" fill="#236082" stroke="#236082"></path><path d="M217 68L116 171L211 190Z" fill="#1d445c" stroke="#1d445c"></path><path d="M307 0L216 0L217 68Z" fill="#0f1d29" stroke="#0f1d29"></path><path d="M217 68L97 112L116 171Z" fill="#278dbe" stroke="#278dbe"></path><path d="M960 355L881 369L960 434Z" fill="#142a39" stroke="#142a39"></path><path d="M960 355L960 258L861 263Z" fill="#061119" stroke="#061119"></path><path d="M960 434L881 369L862 447Z" fill="#061119" stroke="#061119"></path><path d="M960 258L960 207L861 263Z" fill="#267eaa" stroke="#267eaa"></path><path d="M895 102L960 0L840 0Z" fill="#0f1d29" stroke="#0f1d29"></path><path d="M960 540L960 434L862 447Z" fill="#20526f" stroke="#20526f"></path><path d="M0 368L97 437L110 351Z" fill="#278dbe" stroke="#278dbe"></path><path d="M110 351L97 437L179 457Z" fill="#236082" stroke="#236082"></path><path d="M0 238L64 253L0 160Z" fill="#269dd3" stroke="#269dd3"></path><path d="M116 171L64 253L182 260Z" fill="#061119" stroke="#061119"></path><path d="M114 0L97 112L217 68Z" fill="#278dbe" stroke="#278dbe"></path><path d="M97 437L123 540L179 457Z" fill="#1d445c" stroke="#1d445c"></path><path d="M960 207L960 68L895 102Z" fill="#256f96" stroke="#256f96"></path><path d="M848 540L960 540L862 447Z" fill="#142a39" stroke="#142a39"></path><path d="M216 0L114 0L217 68Z" fill="#278dbe" stroke="#278dbe"></path><path d="M0 160L64 253L116 171Z" fill="#278dbe" stroke="#278dbe"></path><path d="M960 68L960 0L895 102Z" fill="#236082" stroke="#236082"></path><path d="M0 160L116 171L97 112Z" fill="#1d445c" stroke="#1d445c"></path><path d="M64 253L0 368L110 351Z" fill="#19374a" stroke="#19374a"></path><path d="M97 437L0 474L123 540Z" fill="#20526f" stroke="#20526f"></path><path d="M0 238L0 368L64 253Z" fill="#267eaa" stroke="#267eaa"></path><path d="M0 72L0 160L97 112Z" fill="#256f96" stroke="#256f96"></path><path d="M0 368L0 474L97 437Z" fill="#269dd3" stroke="#269dd3"></path><path d="M114 0L0 72L97 112Z" fill="#19374a" stroke="#19374a"></path><path d="M0 474L0 540L123 540Z" fill="#269dd3" stroke="#269dd3"></path><path d="M114 0L0 0L0 72Z" fill="#256f96" stroke="#256f96"></path></g></svg>